# xmcd
#
# Track frame offsets: 
#        150
#        9910
#        21937
#        33702
#        47435
#        60770
#        73062
#        83685
#        95172
#        105017
#        114362
#        124600
#        136207
#        150207
#        160672
#        169162
#        179972
#        192037
#        205262
#        215017
#        228052
#        239492
#        249215
#        260215
#
# Disc length: 3623 seconds
#
# Revision: 11
# Processed by: cddbd v1.5.2PL0 Copyright (c) Steve Scherf et al.
# Submitted via: ExactAudioCopy v1.0b6
#
DISCID=350e2518
DTITLE=Glen Campbell - The Capitol Years (65-77)
DYEAR=1998
DGENRE=Pop
TTITLE0=Universal Soldier
TTITLE1=Guess I'm Dumb
TTITLE2=Less Of Me
TTITLE3=Mary In The Morning
TTITLE4=Gentle On My Mind
TTITLE5=By The Time I Get To Phoenix
TTITLE6=They'll Never Take Her Love Away From Me
TTITLE7=Hey Little One
TTITLE8=Just Another Man
TTITLE9=It's Over
TTITLE10=Without Her
TTITLE11=Dreams Of The Everyday Housewife
TTITLE12=Wichita Lineman
TTITLE13=You're Young And You'll Forget
TTITLE14=Every Time I Itch I Wind Up Scratching You
TTITLE15=Reason To Believe
TTITLE16=Galveston
TTITLE17=Where's The Playground Susie
TTITLE18=Got To Have Tenderness
TTITLE19=Campbell, Glenn with Bobby Gentry - Mornin' Glory
TTITLE20=True Grit
TTITLE21=If This Is Love
TTITLE22=Try A Little Kindness
TTITLE23=Campbell, Glenn with Bobby Gentry - All I Have To Do Is Dream
EXTD=YEAR: 1998
EXTT0=
EXTT1=
EXTT2=
EXTT3=
EXTT4=
EXTT5=
EXTT6=
EXTT7=
EXTT8=
EXTT9=
EXTT10=
EXTT11=
EXTT12=
EXTT13=
EXTT14=
EXTT15=
EXTT16=
EXTT17=
EXTT18=
EXTT19=
EXTT20=
EXTT21=
EXTT22=
EXTT23=
PLAYORDER=
